/* XPM */
static char *tuxpuck[] = {
/* columns rows colors chars-per-pixel */
"32 32 210 2 ",
"   c #091920",
".  c #0D2E3B",
"X  c #6A663D",
"o  c #173C49",
"O  c #105270",
"+  c #165872",
"@  c #1F5E76",
"#  c #3E6D72",
"$  c #787346",
"%  c #43706F",
"&  c #5B7363",
"*  c #6A7F65",
"=  c #966919",
"-  c #AB7417",
";  c #BA7C16",
":  c #B37F1D",
">  c #8F7737",
",  c #AC7921",
"<  c #758F72",
"1  c #BF831C",
"2  c #AD8734",
"3  c #AC8C3F",
"4  c #B78C32",
"5  c #C5851A",
"6  c #CC8D1F",
"7  c #D08A19",
"8  c #D5901D",
"9  c #E2991E",
"0  c #CC9122",
"q  c #C7972D",
"w  c #D59925",
"e  c #DC9821",
"r  c #DC9C29",
"t  c #E09F27",
"y  c #D9A227",
"u  c #DAAC31",
"i  c #E5A025",
"p  c #EAA426",
"a  c #E5AA2C",
"s  c #EFAC2B",
"d  c #F2AD2B",
"f  c #EAB22E",
"g  c #F5B12E",
"h  c #F2BA2F",
"j  c #F9B832",
"k  c #EFC33D",
"l  c #FDC233",
"z  c #F3C937",
"x  c #FECC35",
"c  c #FED335",
"v  c #FAD23D",
"b  c #FFD83C",
"n  c #818157",
"m  c #94945D",
"M  c #A2904C",
"N  c #969D6A",
"B  c #A8A86A",
"V  c #CFB451",
"C  c #DDC558",
"Z  c #D8CD5E",
"A  c #FEDE44",
"S  c #FEE653",
"D  c #FEE857",
"F  c #FEED5F",
"G  c #D2D072",
"H  c #156587",
"J  c #11658A",
"K  c #21708C",
"L  c #267290",
"P  c #2C7691",
"I  c #257C9B",
"U  c #0372AF",
"Y  c #0971AA",
"T  c #147DAB",
"R  c #1A7DAE",
"E  c #0575B1",
"W  c #0875B0",
"Q  c #0D7AB3",
"!  c #057FBE",
"~  c #137FB2",
"^  c #37879B",
"/  c #0F85BF",
"(  c #1B82B1",
")  c #1A89B9",
"_  c #2382AB",
"`  c #2289B6",
"'  c #228EBB",
"]  c #298FB9",
"[  c #4DA9BB",
"{  c #69A7A1",
"}  c #0386CB",
"|  c #068CCF",
" . c #0C8ECD",
".. c #1289C2",
"X. c #1B8AC4",
"o. c #128CCA",
"O. c #1D91C0",
"+. c #1991C9",
"@. c #038CD3",
"#. c #0591D5",
"$. c #0D92D2",
"%. c #0494DB",
"&. c #059ADE",
"*. c #0C9BDD",
"=. c #1A9ED6",
"-. c #159FDC",
";. c #2F8FC4",
":. c #269ECD",
">. c #2A9DCC",
",. c #05A0DD",
"<. c #1CA2DA",
"1. c #35A4CA",
"2. c #21A2D9",
"3. c #22A8DD",
"4. c #2EAAD8",
"5. c #3BB4DA",
"6. c #059CE3",
"7. c #099DE2",
"8. c #05A0E7",
"9. c #0EA2E5",
"0. c #04A5EA",
"q. c #0CA7EA",
"w. c #06AAEE",
"e. c #0BAAED",
"r. c #13A3E4",
"t. c #1BA9E1",
"y. c #13ADEE",
"u. c #1DACEA",
"i. c #07ADF0",
"p. c #0CAEF1",
"a. c #0BB0F3",
"s. c #14B4F5",
"d. c #19B5F4",
"f. c #1AB8F7",
"g. c #13B7F8",
"h. c #17B8F8",
"j. c #1CBAF9",
"k. c #24ABE3",
"l. c #21AEEA",
"z. c #2CB1E5",
"x. c #23B0EA",
"c. c #2BB5EC",
"v. c #37BDEE",
"b. c #3CBEEC",
"n. c #22B7F4",
"m. c #23B9F6",
"M. c #2BBBF5",
"N. c #24BDFA",
"B. c #28BEFA",
"V. c #35BDF3",
"C. c #39BDF1",
"Z. c #40B5DE",
"A. c #66BFC3",
"S. c #74BADD",
"D. c #49BEE4",
"F. c #46BDED",
"G. c #6EBCE4",
"H. c #37C0EF",
"J. c #3AC0EE",
"K. c #27C0FC",
"L. c #2DC2FC",
"P. c #37C0F7",
"I. c #3AC3F7",
"U. c #33C5FD",
"Y. c #39C5FB",
"T. c #36C9FF",
"R. c #3CC9FD",
"E. c #52C6DF",
"W. c #7ACEC9",
"Q. c #65CEDC",
"!. c #5BCAE3",
"~. c #59C0EB",
"^. c #5FD1EC",
"/. c #44C6F6",
"(. c #49CCF7",
"). c #4DC7F8",
"_. c #44CCFD",
"`. c #4ACDFB",
"'. c #5DCDF9",
"]. c #4CD0FC",
"[. c #52D1FC",
"{. c #5BD2FC",
"}. c #7FCEEF",
"|. c #65D1E9",
" X c #73CFF6",
".X c #63D4FC",
"XX c #6CD5FC",
"oX c #76D9FD",
"OX c #A5CF98",
"+X c #9CD1AF",
"@X c #8BD0EF",
"#X c #98D4EE",
"$X c #80DAFC",
"%X c #99DBF6",
"&X c #AADCF3",
"*X c #9CE3FD",
"=X c #B1E9FD",
"-X c #CBE5F4",
";X c #C7EAFA",
":X c #D5EBF7",
">X c #CFF1FE",
",X c #D5F3FE",
"<X c #DEF3FC",
"1X c #E4F2FB",
"2X c #EBF5FB",
"3X c #E4F8FE",
"4X c #EEF9FD",
"5X c #F3FBFD",
"6X c #FDFEFE",
"7X c None",
/* pixels */
"7X7X7X7X7X7X7X7X7X7X7X7X>.>.] _ ` ' 7X7X7X7X7X7X7X7X7X7X7X7X7X7X",
"7X7X7X7X7X7X7X7X7X..<.c.I._.`.`.R.C.c.2._ 7X7X7X7X7X7X7X7X7X7X7X",
"7X7X7X7X7X7X7X7X/ 9.n.R.`.].{..X.X{.(.M.-.( 7X7X7X7X7X7X7X7X7X7X",
"7X7X7X7X7X7X7X7X#.q.d.K.U.R.R._.`._._.M.y.$.7X7X7X7X7X7X7X7X7X7X",
"7X7X7X7X7X7X7XQ %.8.e.s.j.K.L.U.U.L.L.B.d.&.R 7X7X7X7X7X7X7X7X7X",
"7X7X7X7X7X7X7XQ %.6.e.s.f.m.K.L.L.K.B.N.d.8...7X7X7X7X7X7X7X7X7X",
"7X7X7X7X7X7X7XQ %.&.q.y.j.K.L.z.:.N.N.N.g.8. .7X7X7X7X7X7X7X7X7X",
"7X7X7X7X7X7X7XQ #.&.q.d.K.U.U._ o c.U.N.g.8.o.7X7X7X7X7X7X7X7X7X",
"7X7X7X7X7X7X7XY @.7.T H M.U.T.K   4.U.L.g.0. .7X7X7X7X7X7X7X7X7X",
"7X7X7X7X7X7X7XY @.*.O . c.T._.1.@ H.U.L.g.0.$.7X7X7X7X7X7X7X7X7X",
"7X7X7X7X7X7X7XY | *.J + H.!.|.[.`._.R.L.N.w.$.7X7X7X7X7X7X7X7X7X",
"7X7X7X7X7X7X7XW | 9.x.[ N V G +X^._.R.U.B.e.$.7X7X7X7X7X7X7X7X7X",
"7X7X7X7X7X7X7XW @.<.{ 3 7 f v v Z OXQ._.L.a.o.7X7X7X7X7X7X7X7X7X",
"7X7X7X7X7X7X7XU ` m r p d j c b b c C W.R.p. .7X7X7X7X7X7X7X7X7X",
"7X7X7X7X7X7X7XP M 9 g j l x A D A x l Z E.a.| 7X7X7X7X7X7X7X7X7X",
"7X7X7X7X7X7X7Xn p p g j x b F D b h w q A.a.@.7X7X7X7X7X7X7X7X7X",
"7X7X7X7X7X7X7X& 1 e i s l S D z y 1 5 B H.a.%.7X7X7X7X7X7X7X7X7X",
"7X7X7X7X7X7X7X~ # = ; 0 a k u 0 5 , < 5.h.a.&.7X7X7X7X7X7X7X7X7X",
"7X7X7X7X7X7X7X .} L X - 5 0 r 8 > ^ r.j.h.a.0.7X7X7X7X7X7X7X7X7X",
"7X7X7X7X7X7X7X-.%.} Q # $ 2 4 * ) 6.a.j.h.g.a.,.7X7X7X7X7X7X7X7X",
"7X7X7X7X7X7X7Xc.e.%.@.} } ....$.6.p.g.j.j.j.g.w.7X7X7X7X7X7X7X7X",
"7X7X7X7X7X7Xz.Y.m.w.7.7.7.7.r.y.d.j.N.B.B.j.j.g.y.7X7X7X7X7X7X7X",
"7X7X7X7X7Xl.B.R.B.m.d.n.V.).'.XXXXXX{._.U.B.j.h.j.M.c.7X7X7X7X7X",
"7X7X7X7Xt.f.B.R.R.L.`.*X>X3X4X5X5X4X3X,X=XXXM.s.h.U._.J.7X7X7X7X",
"7X7X7X3.j.N.N.L.R.oX,X6X6X6X6X6X6X6X6X5X4X2X%Xl.w.N.R.`.5.7X7X7X",
"7X7XO.d.L.R.N.L.oX<X5X6X6X6X6X6X6X6X6X5X5X5X2X@X9.w.B._.].D.7X7X",
"7X7X-.j._._.h.I.;X4X5X6X6X6X6X6X6X6X6X6X6X5X5X1XS.#.y.M._.].7X7X",
"7X..e.m.{.`.y. X2X4X6X6X6X6X6X6X6X6X6X6X6X6X5X2X-X;.*.m.R.`./.7X",
"7X .w.N.].`.l.&X2X4X6X6X6X6X6X6X6X6X6X6X6X6X5X2X1XS.u.Y.R.R.V.7X",
"( %.w.d._.[.F.-X2X5X6X6X6X6X6X6X6X6X6X6X6X5X4X2X:X~.M.R.R.M.r.+.",
"X.%.w.p.M.].{.;X2X2X6X6X6X6X6X6X6X6X6X6X5X5X2X1X@Xu.n.n.u.$.} ..",
"..@.0.a.y.Y.].$X<X4X5X6X6X6X6X6X6X6X6X5X2X1X1X#Xk.q.q.6.! U } .."
};
