/* XPM */
static char *tuxpuck[] = {
/* columns rows colors chars-per-pixel */
"32 32 240 2 ",
"   c #4B4B42423939",
".  c #4D4D46463C3C",
"X  c #565642423030",
"o  c #5C5C46463131",
"O  c #5E5E4A4A3535",
"+  c #535347473838",
"@  c #5E5E4E4E3E3E",
"#  c #6A6A46462626",
"$  c #646446462C2C",
"%  c #6F6F4B4B2A2A",
"&  c #77774D4D2727",
"*  c #626250503636",
"=  c #6E6E52523636",
"-  c #6A6A52523A3A",
";  c #777753533232",
":  c #7A7A5A5A3A3A",
">  c #3F3F46464949",
",  c #363645455454",
"<  c #3E3E4A4A5353",
"1  c #39394A4A5858",
"2  c #3A3A4E4E5D5D",
"3  c #3F3F4E4E5E5E",
"4  c #3A3A52526262",
"5  c #3E3E52526161",
"6  c #414144444242",
"7  c #464645454141",
"8  c #4C4C4A4A4646",
"9  c #46464A4A4A4A",
"0  c #4C4C4E4E4848",
"q  c #5A5A52524646",
"w  c #545450504848",
"e  c #46464E4E5353",
"r  c #41414E4E5858",
"t  c #4C4C52525555",
"y  c #464652525959",
"u  c #434352525F5F",
"i  c #4E4E56565A5A",
"p  c #494956565C5C",
"a  c #4E4E5A5A5F5F",
"s  c #555556565252",
"d  c #545456565656",
"f  c #5A5A59595555",
"g  c #53535A5A5D5D",
"h  c #5F5F5F5F5B5B",
"j  c #6F6F5B5B4343",
"k  c #66665A5A4E4E",
"l  c #76765A5A4242",
"z  c #60605A5A5050",
"x  c #6C6C60604F4F",
"c  c #767660604A4A",
"v  c #7E7E64644A4A",
"b  c #666660605656",
"n  c #6F6F66665555",
"m  c #787866665050",
"M  c #7E7E6A6A5252",
"N  c #73736A6A5B5B",
"B  c #424256566262",
"V  c #484856566262",
"C  c #434356566868",
"Z  c #45455A5A6B6B",
"A  c #4A4A5A5A6868",
"S  c #4A4A5E5E6B6B",
"D  c #4F4F5E5E6868",
"F  c #58585E5E6161",
"G  c #43435E5E7474",
"H  c #505062626D6D",
"J  c #585866666C6C",
"K  c #4B4B62627474",
"L  c #4F4F66667777",
"P  c #464662627A7A",
"I  c #525262627272",
"U  c #59596A6A7373",
"Y  c #56566A6A7D7D",
"T  c #58586F6F7C7C",
"R  c #5E5E70707C7C",
"E  c #626266666262",
"W  c #60606A6A6C6C",
"Q  c #74746E6E6464",
"!  c #666670707676",
"~  c #767676767474",
"^  c #ACAC5F5F1F1F",
"/  c #B5B561611F1F",
"(  c #80804D4D2424",
")  c #868652522626",
"_  c #8B8B56562929",
"`  c #909052522020",
"'  c #929256562222",
"]  c #989856562020",
"[  c #9C9C5C5C2525",
"{  c #91915D5D2D2D",
"}  c #818157573131",
"|  c #87875D5D3232",
" . c #A2A25A5A2020",
".. c #969666663A3A",
"X. c #A2A262622A2A",
"o. c #A6A664642A2A",
"O. c #B4B466662424",
"+. c #BDBD6A6A2424",
"@. c #B4B46C6C2B2B",
"#. c #BFBF6E6E2929",
"$. c #A2A26C6C3838",
"%. c #A6A66E6E3838",
"&. c #BDBD74743030",
"*. c #B2B276763E3E",
"=. c #C5C575752C2C",
"-. c #C2C27A7A3939",
";. c #858565654545",
":. c #86866A6A4C4C",
">. c #97976D6D4242",
",. c #90906A6A4545",
"<. c #8D8D70704F4F",
"1. c #8E8E76765A5A",
"2. c #9A9A76765050",
"3. c #A2A275754A4A",
"4. c #B6B67E7E4646",
"5. c #A2A27A7A5252",
"6. c #ABAB7F7F5151",
"7. c #878777776363",
"8. c #8A8A7E7E7272",
"9. c #CCCC82823636",
"0. c #9E9E82825E5E",
"q. c #BABA80804646",
"w. c #BABA8E8E5E5E",
"e. c #969682826E6E",
"r. c #9E9E8A8A7676",
"t. c #A4A487876666",
"y. c #B4B48C8C6060",
"u. c #BEBE92926A6A",
"i. c #BEBE96966A6A",
"p. c #AAAA92927676",
"a. c #BCBC9C9C7676",
"s. c #B2B298987A7A",
"d. c #C8C889894A4A",
"f. c #CACA8E8E4F4F",
"g. c #C9C993935C5C",
"h. c #D1D194945656",
"j. c #D7D79C9C5F5F",
"k. c #D1D19D9D6565",
"l. c #C3C39D9D7575",
"z. c #D7D7A2A26868",
"x. c #CACAA2A27575",
"c. c #DBDBA8A87070",
"v. c #DEDEB0B07373",
"b. c #E5E5B7B77373",
"n. c #464666668282",
"m. c #46466A6A8282",
"M. c #4D4D6A6A8282",
"N. c #4E4E6E6E8989",
"B. c #525270708787",
"V. c #585871718787",
"C. c #585876768B8B",
"Z. c #5E5E77778989",
"A. c #555578789494",
"S. c #5A5A79799595",
"D. c #666676768181",
"F. c #65657A7A8888",
"G. c #6C6C7C7C8888",
"H. c #60607C7C9494",
"J. c #686883839595",
"K. c #606082829C9C",
"L. c #696986869F9F",
"P. c #717183839292",
"I. c #73738A8A9595",
"U. c #76768C8C9C9C",
"Y. c #70708D8DA2A2",
"T. c #6F6F9292AEAE",
"R. c #77779292A3A3",
"E. c #7E7E9797ABAB",
"W. c #76769797B2B2",
"Q. c #7D7D9E9EB7B7",
"!. c #9A9A8C8C8080",
"~. c #87879898A6A6",
"^. c #8E8E9E9EAAAA",
"/. c #8989A3A3B7B7",
"(. c #9292A4A4B4B4",
"). c #9696AAAAB8B8",
"_. c #9C9CB2B2BEBE",
"`. c #CECEA8A88080",
"'. c #C8C8A8A88484",
"]. c #D5D5B0B08484",
"[. c #DEDEB2B28282",
"{. c #DEDEBABA8888",
"}. c #D2D2B6B69696",
"|. c #D8D8B4B49292",
" X c #D6D6BABA9696",
".X c #DFDFBDBD9090",
"XX c #DEDEBEBE9B9B",
"oX c #E2E2B2B28282",
"OX c #E7E7BBBB8686",
"+X c #DFDFC4C49D9D",
"@X c #E6E6C4C48080",
"#X c #EAEACECE8686",
"$X c #E6E6C3C39090",
"%X c #E6E6C4C49D9D",
"&X c #E8E8CACA9898",
"*X c #E0E0CACAA2A2",
"=X c #E5E5CCCCADAD",
"-X c #EEEEDADAA6A6",
";X c #ECECD3D3ADAD",
":X c #EAEACCCCB0B0",
">X c #EFEFD9D9B7B7",
",X c #E8E8D6D6B8B8",
"<X c #F2F2E2E2BABA",
"1X c #F6F6EAEABEBE",
"2X c #8E8EAAAAC0C0",
"3X c #8484AEAECCCC",
"4X c #9090AEAEC4C4",
"5X c #9292B2B2C8C8",
"6X c #9C9CB6B6CBCB",
"7X c #9999BABACDCD",
"8X c #9E9EBEBED2D2",
"9X c #A6A6B6B6C2C2",
"0X c #A3A3BDBDCDCD",
"qX c #ACACBCBCC8C8",
"wX c #9696C2C2DADA",
"eX c #A2A2C2C2D2D2",
"rX c #A2A2CACADEDE",
"tX c #B0B0C2C2D0D0",
"yX c #B5B5C8C8D4D4",
"uX c #BBBBCACAD5D5",
"iX c #B4B4D3D3DFDF",
"pX c #BFBFD1D1DCDC",
"aX c #C6C6D6D6DEDE",
"sX c #EEEED9D9C2C2",
"dX c #F1F1DEDEC9C9",
"fX c #F2F2E6E6CBCB",
"gX c #F1F1E2E2CDCD",
"hX c #F6F6EEEECACA",
"jX c #F3F3E2E2D2D2",
"kX c #F4F4E7E7D7D7",
"lX c #C0C0DADAE6E6",
"zX c #CECED9D9E0E0",
"xX c #CACADEDEE6E6",
"cX c #D2D2DADAE4E4",
"vX c #D3D3E1E1E5E5",
"bX c #DADAE4E4EBEB",
"nX c #DEDEE6E6EAEA",
"mX c #F6F6EFEFE1E1",
"MX c #E4E4EDEDF1F1",
"NX c gray100",
/* pixels */
"NXNXNXNXNXNXNXNXNXNXNXNXNXNXNXNXNXNXNXNXNXNXNXNXNXNXNXNXNXNXNXNX",
"NXNXNXNXNXNXNXNXNXNXNXNXNXNXNXNXNXNXNXNXNXNXNXNXNXNXNXNXNXNXNXNX",
"NXNXNXNXNXNXNXNXNXNXNXNXNXNXNXNXNXNXNXNXNXNXNXNXNXNXNXNXNXNXNXNX",
"NXNXNXNXNXNXNXNXNXNXNXNXNXNXNXNXNXNXNXNXNXNXNXNXNXNXNXNXNXNXNXNX",
"NXNXNXNXNXNXNXNX$X$X;X$X].t.0.e.!.~ ~ ! I.I.L.L.NXNXNXNXNXNXNXNX",
"NXNXNXNXNXNXfXfX$Xv.g.6.3.,.;.m n b E J T Z.J.T.Q.Q.NXNXNXNXNXNX",
"NXNXNXNXkXmXgXq.@.o.X.{ | : l j z f g D K K n.M.N.K.7XwXNXNXNXNX",
"NXNXNXmXdX{.-.O.o.[ { _ } = - * q w i p C Z G P m.N.S.W.iXiXNXNX",
"NXNXgX,Xd.&.+.^  .' ) ( & * O + w 0 e e r u C G P M.A.A.K.rXxXNX",
"NX$Xj.&.#.+./  .` ( & # $ X .     6 6 > < < 3 B Z K V.C.S.K.3XiX",
"f.#X-.=.#.+.O.] ` & % $ $ +       6 > > > < r u Z K V.C.S.K.T.lX",
"f.@X9.=.=.+.O. ._ ( % $ o + . 7 7 > > > > < r B Z K V.S.H.K.T.MX",
"h.v.b.9.=.#.@.[ _ ; % O O . . 7 7 > > > r r y V S L C.S.K.W.5XbX",
".Xh.b.OXd.&.@.X.{ } = * @ 0 8 8 9 9 e e y y V D I Y H.L./.yXpX0X",
";Xj.h.c.;X-Xb.%.>.;.c x z s d i i i i a D H J R G.(.cXnXbXaXtX6X",
"1Xc.h.c.{.=X>X[.w.2.M x b g g g g g D F W D.P.~.qXuXzXzXcXbX0X6X",
"hXv.j.c.$X:X+X*X.X'.s.7.E F W J U U R D.I.~.~.^.).9XpXvXbXpX2X0X",
"<Xv.j.oX;XfXsX'.s.p.r.8.Q W ! R U T R D.F.F.P.I.~._.bXbXpX4X/.5X",
"&Xz.z.OX>XsXsX}.a.t.7.Q b F D D D D H I L T Z.J.E._.pXpXiX7X4X2X",
"].k.j.{.dXkXsX Xa.t.1.N h p V V B V V V S L T H.L.E.4X5X5X5X5X/.",
"k.g.j.[.>XkXsX|.a.t.<.n h p y u u u u B Z K M.C.H.Y.2X5X8X7XQ.Y.",
"4.-.j.%X>XgXdX].a.0.<.m f y u r 3 3 3 3 C Z P B.K.Y.4X8X8X4XR.C.",
"NX@.h.%XdXjXgX].i.6.<.c z t r r 3 1 1 1 2 5 Z M.C.H.4X7X6X5XE.B.",
"NX' g.%XgXjXgX].l.6.<.c k t e r 1 1 1 1 1 2 4 G N.H.E.5X7XeX4XS ",
"NXNX*..XsXkXkXXX`.w.5.:.c s t e r < < 1 1 5 C G M.C.R.(.).I.Z NX",
"NXNXNXq.+XsXkXXX`.w.3.,.v z s t e r r < 3 B Z K Y V.U.I.F.S NXNX",
"NXNXNXNX%.x.*X*Xx.y.3.,.;.k z d t y r r u V S L Y T T H r NXNXNX",
"NXNXNXNXNXNX$.l.u.6.>.,.;.x b f s i p p V A D D L S < NXNXNXNXNX",
"NXNXNXNXNXNXNX{ ..| } ;.:.c x h F g g a i y r > < , NXNXNXNXNXNX",
"NXNXNXNXNXNXNXNXNXNXNXNXNXNXNXNXNXNXNXNXNXNXNXNXNXNXNXNXNXNXNXNX",
"NXNXNXNXNXNXNXNXNXNXNXNXNXNXNXNXNXNXNXNXNXNXNXNXNXNXNXNXNXNXNXNX",
"NXNXNXNXNXNXNXNXNXNXNXNXNXNXNXNXNXNXNXNXNXNXNXNXNXNXNXNXNXNXNXNX"
};
